<svg width="24" height="24" viewBox="0 0 24 24" fill="none" xmlns="http://www.w3.org/2000/svg">
    <path fill-rule="evenodd" clip-rule="evenodd" d="M21 20C21.366 20 21.702 19.8 21.878 19.479C22.053 19.158 22.039 18.767 21.841 18.459L12.841 4.459C12.657 4.173 12.34 4 12 4C11.66 4 11.343 4.173 11.159 4.459L2.159 18.459C1.961 18.767 1.947 19.158 2.122 19.479C2.298 19.8 2.634 20 3 20H21Z" fill="url(#paint0_linear_3383_2559)"/>
    <path fill-rule="evenodd" clip-rule="evenodd" d="M12 16C12.552 16 13 16.448 13 17C13 17.552 12.552 18 12 18C11.448 18 11 17.552 11 17C11 16.448 11.448 16 12 16ZM11 12V14C11 14.552 11.448 15 12 15C12.552 15 13 14.552 13 14V12C13 11.448 12.552 11 12 11C11.448 11 11 11.448 11 12Z" fill="#FFB300"/>
    <path d="M12 17C12.5523 17 13 16.5523 13 16C13 15.4477 12.5523 15 12 15C11.4477 15 11 15.4477 11 16C11 16.5523 11.4477 17 12 17Z" fill="url(#paint1_linear_3383_2559)"/>
    <path fill-rule="evenodd" clip-rule="evenodd" d="M11 11.0001V13.0001C11 13.5521 11.448 14.0001 12 14.0001C12.552 14.0001 13 13.5521 13 13.0001V11.0001C13 10.4481 12.552 10.0001 12 10.0001C11.448 10.0001 11 10.4481 11 11.0001Z" fill="url(#paint2_linear_3383_2559)"/>
    <defs>
    <linearGradient id="paint0_linear_3383_2559" x1="8.486" y1="19.061" x2="14.175" y2="4.243" gradientUnits="userSpaceOnUse">
    <stop stop-color="#FBC02D"/>
    <stop offset="1" stop-color="#FFEE58"/>
    </linearGradient>
    <linearGradient id="paint1_linear_3383_2559" x1="11.764" y1="16.425" x2="12.343" y2="14.464" gradientUnits="userSpaceOnUse">
    <stop stop-color="#FFF9C4"/>
    <stop offset="1" stop-color="#FFFDE7"/>
    </linearGradient>
    <linearGradient id="paint2_linear_3383_2559" x1="11.636" y1="13.693" x2="12.729" y2="10.029" gradientUnits="userSpaceOnUse">
    <stop stop-color="#FFF9C4"/>
    <stop offset="1" stop-color="#FFFDE7"/>
    </linearGradient>
    </defs>
</svg>
