<svg width="16" height="17" viewBox="0 0 16 17" fill="none" xmlns="http://www.w3.org/2000/svg">
    <path d="M4.99999 13.793V1.5H3.99999V13.793L2.02499 11.818L1.31799 12.525L4.14649 15.3535C4.24026 15.4472 4.36741 15.4999 4.49999 15.4999C4.63258 15.4999 4.75973 15.4472 4.85349 15.3535L7.68199 12.525L6.97499 11.818L4.99999 13.793ZM14.682 4.475L11.8535 1.6465C11.7597 1.55276 11.6326 1.50011 11.5 1.50011C11.3674 1.50011 11.2403 1.55276 11.1465 1.6465L8.31799 4.475L9.02499 5.182L11 3.207V15.5H12V3.207L13.975 5.182L14.682 4.475Z" fill="#757575"/>
</svg>
